<svg width="32" height="32" viewBox="0 0 32 32" fill="none" xmlns="http://www.w3.org/2000/svg">
  <defs>
    <linearGradient id="darkGradient" x1="0%" y1="0%" x2="100%" y2="100%">
      <stop offset="0%" style="stop-color:#8b5cf6;stop-opacity:1" />
      <stop offset="50%" style="stop-color:#a855f7;stop-opacity:1" />
      <stop offset="100%" style="stop-color:#7c3aed;stop-opacity:1" />
    </linearGradient>
    <linearGradient id="darkSpotlight" x1="0%" y1="0%" x2="100%" y2="100%">
      <stop offset="0%" style="stop-color:#fbbf24;stop-opacity:0.8" />
      <stop offset="100%" style="stop-color:#f59e0b;stop-opacity:0.5" />
    </linearGradient>
    <filter id="darkGlow" x="-50%" y="-50%" width="200%" height="200%">
      <feGaussianBlur stdDeviation="1.2" result="coloredBlur"/>
      <feMerge> 
        <feMergeNode in="coloredBlur"/>
        <feMergeNode in="SourceGraphic"/>
      </feMerge>
    </filter>
  </defs>
  
  <!-- Dark background with elegant gradient -->
  <rect width="32" height="32" rx="6" fill="#1f2937" stroke="url(#darkGradient)" stroke-width="1"/>
  
  <!-- Spotlight rays for dark mode -->
  <g opacity="0.6">
    <path d="M16 2 L17.5 6 L16 10 L14.5 6 Z" fill="url(#darkSpotlight)"/>
    <path d="M30 16 L26 17.5 L22 16 L26 14.5 Z" fill="url(#darkSpotlight)"/>
    <path d="M16 30 L14.5 26 L16 22 L17.5 26 Z" fill="url(#darkSpotlight)"/>
    <path d="M2 16 L6 14.5 L10 16 L6 17.5 Z" fill="url(#darkSpotlight)"/>
  </g>
  
  <!-- Main star with dark mode styling -->
  <path d="M16 5 L18.2 10.8 L24.5 11.2 L20.2 15.2 L21.4 21.4 L16 18.7 L10.6 21.4 L11.8 15.2 L7.5 11.2 L13.8 10.8 Z" 
        fill="url(#darkGradient)" 
        stroke="#f8fafc" 
        stroke-width="0.8"
        filter="url(#darkGlow)"/>
  
  <!-- Center highlight for dark mode -->
  <circle cx="16" cy="16" r="1.5" fill="#fbbf24" opacity="0.9"/>
  
  <!-- Modern accent dots for dark mode -->
  <circle cx="16" cy="8" r="0.8" fill="#f8fafc" opacity="0.7"/>
  <circle cx="24" cy="16" r="0.8" fill="#f8fafc" opacity="0.7"/>
  <circle cx="16" cy="24" r="0.8" fill="#f8fafc" opacity="0.7"/>
  <circle cx="8" cy="16" r="0.8" fill="#f8fafc" opacity="0.7"/>
</svg>