<svg width="32" height="32" viewBox="0 0 32 32" fill="none" xmlns="http://www.w3.org/2000/svg">
  <defs>
    <linearGradient id="starGradient" x1="0%" y1="0%" x2="100%" y2="100%">
      <stop offset="0%" style="stop-color:#667eea;stop-opacity:1" />
      <stop offset="100%" style="stop-color:#764ba2;stop-opacity:1" />
    </linearGradient>
    <linearGradient id="spotlightGradient" x1="0%" y1="0%" x2="100%" y2="100%">
      <stop offset="0%" style="stop-color:#ffd700;stop-opacity:0.8" />
      <stop offset="100%" style="stop-color:#ffed4e;stop-opacity:0.4" />
    </linearGradient>
  </defs>
  
  <!-- Background circle -->
  <circle cx="16" cy="16" r="15" fill="url(#starGradient)" stroke="#ffffff" stroke-width="2"/>
  
  <!-- Spotlight rays -->
  <path d="M16 4 L18 8 L16 12 L14 8 Z" fill="url(#spotlightGradient)" opacity="0.6"/>
  <path d="M28 16 L24 18 L20 16 L24 14 Z" fill="url(#spotlightGradient)" opacity="0.6"/>
  <path d="M16 28 L14 24 L16 20 L18 24 Z" fill="url(#spotlightGradient)" opacity="0.6"/>
  <path d="M4 16 L8 14 L12 16 L8 18 Z" fill="url(#spotlightGradient)" opacity="0.6"/>
  
  <!-- Main star -->
  <path d="M16 6 L18.5 11 L24 11.5 L20 15.5 L21 21 L16 18.5 L11 21 L12 15.5 L8 11.5 L13.5 11 Z" 
        fill="#ffffff" 
        stroke="url(#starGradient)" 
        stroke-width="1"/>
  
  <!-- Center highlight -->
  <circle cx="16" cy="16" r="2" fill="#ffd700"/>
</svg>