<svg width="32" height="32" viewBox="0 0 32 32" fill="none" xmlns="http://www.w3.org/2000/svg">
  <defs>
    <linearGradient id="lightGradient" x1="0%" y1="0%" x2="100%" y2="100%">
      <stop offset="0%" style="stop-color:#667eea;stop-opacity:1" />
      <stop offset="50%" style="stop-color:#764ba2;stop-opacity:1" />
      <stop offset="100%" style="stop-color:#667eea;stop-opacity:1" />
    </linearGradient>
    <linearGradient id="lightSpotlight" x1="0%" y1="0%" x2="100%" y2="100%">
      <stop offset="0%" style="stop-color:#ffd700;stop-opacity:0.9" />
      <stop offset="100%" style="stop-color:#ffed4e;stop-opacity:0.6" />
    </linearGradient>
    <filter id="glow" x="-50%" y="-50%" width="200%" height="200%">
      <feGaussianBlur stdDeviation="1" result="coloredBlur"/>
      <feMerge> 
        <feMergeNode in="coloredBlur"/>
        <feMergeNode in="SourceGraphic"/>
      </feMerge>
    </filter>
  </defs>
  
  <!-- Background with subtle gradient -->
  <rect width="32" height="32" rx="6" fill="url(#lightGradient)"/>
  
  <!-- Spotlight rays -->
  <g opacity="0.7">
    <path d="M16 2 L17.5 6 L16 10 L14.5 6 Z" fill="url(#lightSpotlight)"/>
    <path d="M30 16 L26 17.5 L22 16 L26 14.5 Z" fill="url(#lightSpotlight)"/>
    <path d="M16 30 L14.5 26 L16 22 L17.5 26 Z" fill="url(#lightSpotlight)"/>
    <path d="M2 16 L6 14.5 L10 16 L6 17.5 Z" fill="url(#lightSpotlight)"/>
  </g>
  
  <!-- Main star with modern styling -->
  <path d="M16 5 L18.2 10.8 L24.5 11.2 L20.2 15.2 L21.4 21.4 L16 18.7 L10.6 21.4 L11.8 15.2 L7.5 11.2 L13.8 10.8 Z" 
        fill="#ffffff" 
        stroke="url(#lightGradient)" 
        stroke-width="0.5"
        filter="url(#glow)"/>
  
  <!-- Center highlight -->
  <circle cx="16" cy="16" r="1.5" fill="#ffd700" opacity="0.9"/>
  
  <!-- Modern accent dots -->
  <circle cx="16" cy="8" r="0.8" fill="#ffffff" opacity="0.8"/>
  <circle cx="24" cy="16" r="0.8" fill="#ffffff" opacity="0.8"/>
  <circle cx="16" cy="24" r="0.8" fill="#ffffff" opacity="0.8"/>
  <circle cx="8" cy="16" r="0.8" fill="#ffffff" opacity="0.8"/>
</svg>